<svg width="48" height="48" viewBox="0 0 48 48" fill="none" xmlns="http://www.w3.org/2000/svg">
<path fill-rule="evenodd" clip-rule="evenodd" d="M36.2402 12.5692C35.0473 11.8949 33.1423 12.9795 31.9853 14.992L29.8904 18.6361C29.125 20.151 29.23 21.9547 30.2007 23.3471L30.2618 23.435C31.2326 24.8273 32.5342 26.1146 32.9649 26.5737C33.2181 26.8437 33.4116 27.1768 33.5183 27.5578C33.8721 28.823 33.1335 30.1354 31.8685 30.4894C30.6033 30.8433 29.2908 30.1048 28.9369 28.8395C28.848 28.522 28.8283 28.2015 28.8682 27.894C28.9362 27.3712 28.7684 26.5198 28.019 25.6841C27.2695 24.8482 25.7378 26.4269 25.2424 28.0503L25.2195 28.1249C24.7242 29.7483 24.4116 31.165 24.5051 31.3014C24.5607 31.3825 24.6125 31.4679 24.6599 31.5569C25.3549 32.8645 24.8582 34.4879 23.5507 35.1829C22.2431 35.8779 20.6197 35.3812 19.9246 34.0738C19.2297 32.7662 19.7263 31.1428 21.0339 30.4478C21.0925 30.4165 21.1519 30.3878 21.2118 30.3614C21.3116 30.3175 21.5949 29.635 21.8407 28.8289C22.0868 28.0227 22.2861 27.3693 22.2861 27.3693C22.3124 27.2835 22.3352 27.1987 22.356 27.1146L23.6792 22.3898L22.2639 25.2948C22.0961 24.7433 21.8188 24.7236 21.2115 25.1581C20.8451 25.4203 20.2395 25.9363 19.9437 26.148C19.3881 26.5456 18.9233 27.3176 18.6773 27.7906C18.5325 28.0691 18.3298 28.323 18.0706 28.5331C17.0573 29.3553 15.5695 29.2004 14.7474 28.1871C13.9253 27.174 14.0803 25.6862 15.0934 24.8641C15.3904 24.6231 15.7284 24.4661 16.0782 24.39C16.6735 24.2606 18.6979 23.024 19.9176 22.1512C20.136 21.9951 20.3192 21.8473 20.4683 21.7102L23.725 19.2369L20.8886 20.7694C20.8886 20.7694 20.6 20.7403 20.2463 20.7795C19.2082 20.8947 18.1391 21.041 17.9371 21.2981C17.8176 21.4499 17.6755 21.5878 17.5107 21.7063C16.5641 22.3881 15.2438 22.1735 14.5619 21.2268C13.8798 20.28 14.0948 18.9597 15.0413 18.2779C15.4319 17.9966 15.8859 17.868 16.3322 17.8804C17.0913 17.9014 19.0891 18.3065 20.7602 18.0104L21.1895 17.9343C22.8609 17.6381 24.8619 16.1832 25.6592 14.6847C25.6592 14.6847 26.4399 13.3134 27.4028 11.6217C28.3659 9.93004 28.2947 8.07714 27.2442 7.48324L25.3416 6.40761C24.3818 5.86494 22.8105 5.864 21.8499 6.40557L8.74642 13.7927C7.78596 14.3342 7 15.6796 7 16.7821V31.2178C7 32.3205 7.78596 33.6658 8.74642 34.2074L21.8499 41.5944C22.8105 42.1361 24.3818 42.135 25.3416 41.5924L38.4002 34.2095C39.3603 33.6668 40.1457 32.3205 40.1457 31.2178V16.7821C40.1457 15.6796 39.3603 14.3332 38.4002 13.7905C38.4002 13.7905 37.433 13.2438 36.2402 12.5692Z" fill="black"/>
</svg>